<?xml version="1.0"?>
<svg xmlns="http://www.w3.org/2000/svg" viewBox="0 0 26 26" enable-background="new 0 0 26 26">
    <path style="text-indent:0;text-align:start;line-height:normal;text-transform:none;block-progression:tb;-inkscape-font-specification:Bitstream Vera Sans" d="M 13 0 C 12.9 3.7007434e-17 12.7875 0.0875 12.6875 0.1875 C 12.5875 0.1875 10.49375 2.1875 9.09375 4.1875 C 8.99375 4.2875 8.99375 4.4875 9.09375 4.6875 C 9.19375 4.8875 9.39375 5 9.59375 5 L 11.3125 5 C 11.3125 5 11.6125 9.29375 11.8125 9.59375 C 11.9125 9.79375 12.5 10 13 10 C 13.5 10 14.1125 9.8 14.3125 9.5 C 14.5125 9.4 14.6875 5 14.6875 5 L 16.5 5 C 16.7 5 16.80625 4.89375 16.90625 4.59375 C 17.00625 4.49375 17.00625 4.29375 16.90625 4.09375 C 15.50625 2.09375 13.4125 0.19375 13.3125 0.09375 C 13.2125 -0.00625 13.1 0 13 0 z M 12.90625 11.96875 A 1.0001 1.0001 0 0 0 12.78125 12 A 1.0001 1.0001 0 0 0 12 13 L 12 16 A 1.0001 1.0001 0 1 0 14 16 L 14 13 A 1.0001 1.0001 0 0 0 12.90625 11.96875 z M 18.9375 13.5625 A 1.0001 1.0001 0 0 0 18.8125 13.59375 A 1.0001 1.0001 0 0 0 18.125 14.09375 L 16.625 16.6875 A 1.0077822 1.0077822 0 0 0 18.375 17.6875 L 19.875 15.09375 A 1.0001 1.0001 0 0 0 18.9375 13.5625 z M 6.84375 13.59375 A 1.0001 1.0001 0 0 0 6.125 15.09375 L 7.625 17.6875 A 1.0077822 1.0077822 0 0 0 9.375 16.6875 L 7.875 14.09375 A 1.0001 1.0001 0 0 0 6.84375 13.59375 z M 23.34375 17.96875 A 1.0001 1.0001 0 0 0 23.25 18 A 1.0001 1.0001 0 0 0 22.90625 18.125 L 20.3125 19.625 A 1.0077822 1.0077822 0 0 0 21.3125 21.375 L 23.90625 19.875 A 1.0001 1.0001 0 0 0 23.34375 17.96875 z M 2.4375 18 A 1.0001 1.0001 0 0 0 2.09375 19.875 L 4.6875 21.375 A 1.0077822 1.0077822 0 0 0 5.6875 19.625 L 3.09375 18.125 A 1.0001 1.0001 0 0 0 2.4375 18 z M 13 18 C 9.4939069 18 6.583898 20.622584 6.09375 24 L 0 24 L 0 26 L 26 26 L 26 24 L 19.90625 24 C 19.416102 20.622584 16.506094 18 13 18 z M 13 20 C 15.410227 20 17.438796 21.724876 17.90625 24 L 8.09375 24 C 8.5612039 21.724876 10.589773 20 13 20 z"/>
</svg>
